<svg width="19" height="19" viewBox="0 0 19 19" fill="none" xmlns="http://www.w3.org/2000/svg">
<path d="M13.5 12H12.71L12.43 11.73C13.0549 11.004 13.5117 10.1488 13.7675 9.22562C14.0234 8.30246 14.072 7.33416 13.91 6.39001C13.44 3.61001 11.12 1.39001 8.31997 1.05001C7.33559 0.925471 6.33576 1.02778 5.397 1.34909C4.45824 1.67041 3.60542 2.20222 2.90381 2.90384C2.20219 3.60545 1.67038 4.45827 1.34906 5.39703C1.02775 6.33579 0.925441 7.33562 1.04997 8.32C1.38997 11.12 3.60998 13.44 6.38998 13.91C7.33413 14.0721 8.30243 14.0234 9.22559 13.7676C10.1487 13.5117 11.0039 13.055 11.73 12.43L12 12.71V13.5L16.25 17.75C16.66 18.16 17.33 18.16 17.74 17.75C18.15 17.34 18.15 16.67 17.74 16.26L13.5 12ZM7.49997 12C5.00997 12 2.99997 9.99001 2.99997 7.50001C2.99997 5.01 5.00997 3.00001 7.49997 3.00001C9.98997 3.00001 12 5.01 12 7.50001C12 9.99001 9.98997 12 7.49997 12Z" fill="#343741"/>
</svg>
